<?xml version="1.0" encoding="UTF-8"?>
<svg xmlns="http://www.w3.org/2000/svg" xmlns:xlink="http://www.w3.org/1999/xlink" width="3750" height="2501.25" viewBox="0 0 3750 2501.25">
<defs>
<linearGradient id="linear-pattern-0" gradientUnits="userSpaceOnUse" x1="-0.00582874" y1="0" x2="1.391919" y2="0" gradientTransform="matrix(-2759.85, -1661.66, -1661.66, 2759.85, 3742.95, 2476.556)">
<stop offset="0" stop-color="rgb(0%, 0%, 33.332825%)" stop-opacity="1"/>
<stop offset="0.0078125" stop-color="rgb(0.0671387%, 0.0213623%, 33.326721%)" stop-opacity="1"/>
<stop offset="0.015625" stop-color="rgb(0.279236%, 0.0900269%, 33.311462%)" stop-opacity="1"/>
<stop offset="0.0234375" stop-color="rgb(0.570679%, 0.184631%, 33.2901%)" stop-opacity="1"/>
<stop offset="0.03125" stop-color="rgb(0.862122%, 0.279236%, 33.268738%)" stop-opacity="1"/>
<stop offset="0.0390625" stop-color="rgb(1.153564%, 0.372314%, 33.247375%)" stop-opacity="1"/>
<stop offset="0.046875" stop-color="rgb(1.445007%, 0.466919%, 33.226013%)" stop-opacity="1"/>
<stop offset="0.0546875" stop-color="rgb(1.73645%, 0.561523%, 33.204651%)" stop-opacity="1"/>
<stop offset="0.0625" stop-color="rgb(2.027893%, 0.654602%, 33.183289%)" stop-opacity="1"/>
<stop offset="0.0703125" stop-color="rgb(2.31781%, 0.749207%, 33.161926%)" stop-opacity="1"/>
<stop offset="0.078125" stop-color="rgb(2.609253%, 0.843811%, 33.140564%)" stop-opacity="1"/>
<stop offset="0.0859375" stop-color="rgb(2.900696%, 0.938416%, 33.119202%)" stop-opacity="1"/>
<stop offset="0.09375" stop-color="rgb(3.192139%, 1.031494%, 33.097839%)" stop-opacity="1"/>
<stop offset="0.101562" stop-color="rgb(3.483582%, 1.126099%, 33.076477%)" stop-opacity="1"/>
<stop offset="0.109375" stop-color="rgb(3.775024%, 1.220703%, 33.055115%)" stop-opacity="1"/>
<stop offset="0.117187" stop-color="rgb(4.064941%, 1.315308%, 33.033752%)" stop-opacity="1"/>
<stop offset="0.125" stop-color="rgb(4.356384%, 1.408386%, 33.01239%)" stop-opacity="1"/>
<stop offset="0.132812" stop-color="rgb(4.647827%, 1.502991%, 32.991028%)" stop-opacity="1"/>
<stop offset="0.140625" stop-color="rgb(4.93927%, 1.597595%, 32.969666%)" stop-opacity="1"/>
<stop offset="0.148438" stop-color="rgb(5.230713%, 1.6922%, 32.948303%)" stop-opacity="1"/>
<stop offset="0.15625" stop-color="rgb(5.522156%, 1.785278%, 32.926941%)" stop-opacity="1"/>
<stop offset="0.164062" stop-color="rgb(5.812073%, 1.879883%, 32.905579%)" stop-opacity="1"/>
<stop offset="0.171875" stop-color="rgb(6.103516%, 1.974487%, 32.884216%)" stop-opacity="1"/>
<stop offset="0.179687" stop-color="rgb(6.394958%, 2.069092%, 32.862854%)" stop-opacity="1"/>
<stop offset="0.1875" stop-color="rgb(6.686401%, 2.16217%, 32.841492%)" stop-opacity="1"/>
<stop offset="0.195312" stop-color="rgb(6.977844%, 2.256775%, 32.818604%)" stop-opacity="1"/>
<stop offset="0.203125" stop-color="rgb(7.269287%, 2.351379%, 32.797241%)" stop-opacity="1"/>
<stop offset="0.210938" stop-color="rgb(7.559204%, 2.445984%, 32.775879%)" stop-opacity="1"/>
<stop offset="0.21875" stop-color="rgb(7.850647%, 2.539062%, 32.754517%)" stop-opacity="1"/>
<stop offset="0.226562" stop-color="rgb(8.14209%, 2.633667%, 32.733154%)" stop-opacity="1"/>
<stop offset="0.234375" stop-color="rgb(8.433533%, 2.728271%, 32.711792%)" stop-opacity="1"/>
<stop offset="0.242188" stop-color="rgb(8.724976%, 2.822876%, 32.69043%)" stop-opacity="1"/>
<stop offset="0.25" stop-color="rgb(9.016418%, 2.915955%, 32.669067%)" stop-opacity="1"/>
<stop offset="0.257812" stop-color="rgb(9.306335%, 3.010559%, 32.647705%)" stop-opacity="1"/>
<stop offset="0.265625" stop-color="rgb(9.597778%, 3.105164%, 32.626343%)" stop-opacity="1"/>
<stop offset="0.273437" stop-color="rgb(9.889221%, 3.199768%, 32.60498%)" stop-opacity="1"/>
<stop offset="0.28125" stop-color="rgb(10.180664%, 3.292847%, 32.583618%)" stop-opacity="1"/>
<stop offset="0.289062" stop-color="rgb(10.472107%, 3.387451%, 32.562256%)" stop-opacity="1"/>
<stop offset="0.296875" stop-color="rgb(10.76355%, 3.482056%, 32.540894%)" stop-opacity="1"/>
<stop offset="0.304688" stop-color="rgb(11.054993%, 3.575134%, 32.519531%)" stop-opacity="1"/>
<stop offset="0.3125" stop-color="rgb(11.34491%, 3.669739%, 32.498169%)" stop-opacity="1"/>
<stop offset="0.320312" stop-color="rgb(11.636353%, 3.764343%, 32.476807%)" stop-opacity="1"/>
<stop offset="0.328125" stop-color="rgb(11.927795%, 3.858948%, 32.455444%)" stop-opacity="1"/>
<stop offset="0.335938" stop-color="rgb(12.219238%, 3.952026%, 32.434082%)" stop-opacity="1"/>
<stop offset="0.34375" stop-color="rgb(12.510681%, 4.046631%, 32.41272%)" stop-opacity="1"/>
<stop offset="0.351562" stop-color="rgb(12.802124%, 4.141235%, 32.391357%)" stop-opacity="1"/>
<stop offset="0.359375" stop-color="rgb(13.092041%, 4.23584%, 32.369995%)" stop-opacity="1"/>
<stop offset="0.367187" stop-color="rgb(13.383484%, 4.328918%, 32.348633%)" stop-opacity="1"/>
<stop offset="0.375" stop-color="rgb(13.674927%, 4.423523%, 32.327271%)" stop-opacity="1"/>
<stop offset="0.382812" stop-color="rgb(13.96637%, 4.518127%, 32.305908%)" stop-opacity="1"/>
<stop offset="0.390625" stop-color="rgb(14.257812%, 4.612732%, 32.284546%)" stop-opacity="1"/>
<stop offset="0.398438" stop-color="rgb(14.549255%, 4.705811%, 32.263184%)" stop-opacity="1"/>
<stop offset="0.40625" stop-color="rgb(14.839172%, 4.800415%, 32.241821%)" stop-opacity="1"/>
<stop offset="0.414062" stop-color="rgb(15.130615%, 4.89502%, 32.220459%)" stop-opacity="1"/>
<stop offset="0.421875" stop-color="rgb(15.422058%, 4.989624%, 32.199097%)" stop-opacity="1"/>
<stop offset="0.429687" stop-color="rgb(15.713501%, 5.082703%, 32.177734%)" stop-opacity="1"/>
<stop offset="0.4375" stop-color="rgb(16.004944%, 5.177307%, 32.154846%)" stop-opacity="1"/>
<stop offset="0.445312" stop-color="rgb(16.296387%, 5.271912%, 32.133484%)" stop-opacity="1"/>
<stop offset="0.453125" stop-color="rgb(16.586304%, 5.366516%, 32.112122%)" stop-opacity="1"/>
<stop offset="0.460937" stop-color="rgb(16.877747%, 5.459595%, 32.090759%)" stop-opacity="1"/>
<stop offset="0.46875" stop-color="rgb(17.169189%, 5.554199%, 32.069397%)" stop-opacity="1"/>
<stop offset="0.476562" stop-color="rgb(17.460632%, 5.648804%, 32.048035%)" stop-opacity="1"/>
<stop offset="0.484375" stop-color="rgb(17.752075%, 5.743408%, 32.026672%)" stop-opacity="1"/>
<stop offset="0.492188" stop-color="rgb(18.043518%, 5.836487%, 32.00531%)" stop-opacity="1"/>
<stop offset="0.5" stop-color="rgb(18.334961%, 5.931091%, 31.983948%)" stop-opacity="1"/>
<stop offset="0.507812" stop-color="rgb(18.624878%, 6.025696%, 31.962585%)" stop-opacity="1"/>
<stop offset="0.515625" stop-color="rgb(18.916321%, 6.1203%, 31.941223%)" stop-opacity="1"/>
<stop offset="0.523438" stop-color="rgb(19.207764%, 6.213379%, 31.919861%)" stop-opacity="1"/>
<stop offset="0.53125" stop-color="rgb(19.499207%, 6.307983%, 31.898499%)" stop-opacity="1"/>
<stop offset="0.539063" stop-color="rgb(19.790649%, 6.402588%, 31.877136%)" stop-opacity="1"/>
<stop offset="0.546875" stop-color="rgb(20.082092%, 6.497192%, 31.855774%)" stop-opacity="1"/>
<stop offset="0.554688" stop-color="rgb(20.372009%, 6.590271%, 31.834412%)" stop-opacity="1"/>
<stop offset="0.5625" stop-color="rgb(20.663452%, 6.684875%, 31.813049%)" stop-opacity="1"/>
<stop offset="0.570312" stop-color="rgb(20.954895%, 6.77948%, 31.791687%)" stop-opacity="1"/>
<stop offset="0.578125" stop-color="rgb(21.246338%, 6.872559%, 31.770325%)" stop-opacity="1"/>
<stop offset="0.585938" stop-color="rgb(21.537781%, 6.967163%, 31.748962%)" stop-opacity="1"/>
<stop offset="0.59375" stop-color="rgb(21.829224%, 7.061768%, 31.7276%)" stop-opacity="1"/>
<stop offset="0.601562" stop-color="rgb(22.119141%, 7.156372%, 31.706238%)" stop-opacity="1"/>
<stop offset="0.609375" stop-color="rgb(22.410583%, 7.249451%, 31.684875%)" stop-opacity="1"/>
<stop offset="0.617188" stop-color="rgb(22.702026%, 7.344055%, 31.663513%)" stop-opacity="1"/>
<stop offset="0.625" stop-color="rgb(22.993469%, 7.43866%, 31.642151%)" stop-opacity="1"/>
<stop offset="0.632812" stop-color="rgb(23.284912%, 7.533264%, 31.620789%)" stop-opacity="1"/>
<stop offset="0.640625" stop-color="rgb(23.576355%, 7.626343%, 31.599426%)" stop-opacity="1"/>
<stop offset="0.648438" stop-color="rgb(23.866272%, 7.720947%, 31.578064%)" stop-opacity="1"/>
<stop offset="0.65625" stop-color="rgb(24.157715%, 7.815552%, 31.556702%)" stop-opacity="1"/>
<stop offset="0.664063" stop-color="rgb(24.449158%, 7.910156%, 31.535339%)" stop-opacity="1"/>
<stop offset="0.671875" stop-color="rgb(24.740601%, 8.003235%, 31.513977%)" stop-opacity="1"/>
<stop offset="0.679688" stop-color="rgb(25.032043%, 8.097839%, 31.491089%)" stop-opacity="1"/>
<stop offset="0.6875" stop-color="rgb(25.323486%, 8.192444%, 31.469727%)" stop-opacity="1"/>
<stop offset="0.695313" stop-color="rgb(25.613403%, 8.287048%, 31.448364%)" stop-opacity="1"/>
<stop offset="0.703125" stop-color="rgb(25.904846%, 8.380127%, 31.427002%)" stop-opacity="1"/>
<stop offset="0.710938" stop-color="rgb(26.196289%, 8.474731%, 31.40564%)" stop-opacity="1"/>
<stop offset="0.71875" stop-color="rgb(26.487732%, 8.569336%, 31.384277%)" stop-opacity="1"/>
<stop offset="0.75" stop-color="rgb(26.649475%, 8.621216%, 31.37207%)" stop-opacity="1"/>
<stop offset="1" stop-color="rgb(26.66626%, 8.627319%, 31.37207%)" stop-opacity="1"/>
</linearGradient>
</defs>
<path fill-rule="nonzero" fill="url(#linear-pattern-0)" d="M 4855.289062 665.476562 L 2752.285156 4158.355469 L -1105.289062 1835.773438 L 997.714844 -1657.105469 Z M 4855.289062 665.476562 "/>
<path fill-rule="nonzero" fill="rgb(100%, 100%, 100%)" fill-opacity="1" d="M 2727.96875 447.769531 C 2728.570312 447.578125 2727.648438 446.941406 2727.289062 446.441406 L 2250.230469 263.609375 C 2249.640625 263.71875 2248.53125 263.671875 2248.828125 264.140625 L 2423.820312 544.179688 L 2727.96875 447.769531 "/>
<path fill-rule="nonzero" fill="rgb(100%, 100%, 100%)" fill-opacity="1" d="M 2249.371094 265.859375 L 2436.089844 506.019531 L 2726.421875 448.679688 C 2727.011719 448.570312 2727.308594 449.5 2727.109375 450.019531 L 2622.46875 723.039062 C 2622.28125 723.558594 2621.648438 723.800781 2621.070312 723.578125 L 2144.019531 540.75 C 2143.429688 540.871094 2143.128906 539.941406 2143.328125 539.421875 L 2247.96875 266.390625 C 2248.160156 265.871094 2248.789062 265.628906 2249.371094 265.859375 "/>
<path fill-rule="nonzero" fill="rgb(33.325195%, 59.959412%, 100%)" fill-opacity="1" d="M 2238.28125 870.800781 L 2238.28125 1000.628906 C 2238.140625 1012.261719 2247.53125 1021.769531 2259.171875 1021.769531 C 2270.808594 1021.769531 2280.199219 1012.261719 2280.058594 1000.628906 L 2280.058594 715.359375 C 2280.328125 696.300781 2257.03125 686.859375 2243.960938 700.730469 C 2240.238281 704.679688 2238.199219 709.929688 2238.28125 715.351562 L 2238.28125 870.800781 "/>
<path fill-rule="nonzero" fill="rgb(33.325195%, 59.959412%, 100%)" fill-opacity="1" d="M 1386.640625 889.671875 L 1386.640625 1003.328125 C 1386.5 1014.96875 1395.890625 1024.480469 1407.53125 1024.480469 C 1419.171875 1024.480469 1428.558594 1014.96875 1428.421875 1003.328125 L 1428.421875 847.878906 L 1428.421875 886.089844 C 1428.691406 867.03125 1405.390625 857.589844 1392.320312 871.46875 C 1388.601562 875.421875 1386.558594 880.660156 1386.640625 886.089844 L 1386.640625 847.878906 L 1386.640625 889.671875 "/>
<path fill-rule="nonzero" fill="rgb(33.325195%, 59.959412%, 100%)" fill-opacity="1" d="M 1386.640625 718.519531 L 1386.640625 832.191406 C 1386.5 843.828125 1395.890625 853.328125 1407.53125 853.328125 C 1419.171875 853.328125 1428.558594 843.828125 1428.421875 832.191406 L 1428.421875 676.738281 L 1428.421875 714.949219 C 1428.691406 695.890625 1405.390625 686.449219 1392.320312 700.320312 C 1388.601562 704.269531 1386.558594 709.519531 1386.640625 714.941406 L 1386.640625 676.738281 L 1386.640625 718.519531 "/>
<path fill-rule="nonzero" fill="rgb(33.325195%, 59.959412%, 100%)" fill-opacity="1" d="M 1488.449219 460 L 2180.398438 460 C 2227.089844 460 2264.679688 504.5 2264.679688 559.78125 L 2264.679688 2041.921875 C 2264.679688 2097.195312 2227.089844 2141.695312 2180.398438 2141.695312 L 1488.449219 2141.695312 C 1441.761719 2141.695312 1404.179688 2097.195312 1404.179688 2041.921875 L 1404.179688 559.78125 C 1404.179688 504.5 1441.761719 460 1488.449219 460 "/>
<path fill-rule="nonzero" fill="rgb(100%, 100%, 100%)" fill-opacity="1" d="M 1513.390625 490.96875 L 2155.46875 490.96875 C 2198.789062 490.96875 2233.671875 533.828125 2233.671875 587.070312 L 2233.671875 2014.636719 C 2233.671875 2067.875 2198.789062 2110.738281 2155.46875 2110.738281 L 1513.390625 2110.738281 C 1470.058594 2110.738281 1435.179688 2067.875 1435.179688 2014.636719 L 1435.179688 587.070312 C 1435.179688 533.828125 1470.058594 490.96875 1513.390625 490.96875 "/>
<path fill-rule="nonzero" fill="rgb(0%, 0%, 0%)" fill-opacity="1" d="M 1862.671875 551.699219 C 1862.671875 567.300781 1850.03125 579.941406 1834.429688 579.941406 C 1826.929688 579.941406 1819.75 576.96875 1814.449219 571.671875 C 1809.148438 566.371094 1806.179688 559.191406 1806.179688 551.699219 C 1806.179688 544.199219 1809.148438 537.019531 1814.449219 531.71875 C 1819.75 526.421875 1826.929688 523.449219 1834.429688 523.449219 C 1850.03125 523.449219 1862.671875 536.101562 1862.671875 551.699219 "/>
<path fill-rule="nonzero" fill="rgb(100%, 80.076599%, 0%)" fill-opacity="1" d="M 1550.980469 182.238281 L 1312.910156 182.691406 C 1256.03125 182.800781 1210.320312 223.558594 1210.410156 274.078125 L 1210.910156 535.089844 C 1211 585.609375 1256.871094 626.199219 1313.75 626.089844 L 1478.910156 625.78125 L 1543 685.171875 C 1543 685.171875 1539.421875 625.660156 1551.820312 625.640625 C 1608.691406 625.53125 1654.410156 584.769531 1654.308594 534.25 L 1653.808594 273.238281 C 1653.71875 222.71875 1607.851562 182.128906 1550.980469 182.238281 "/>
<path fill-rule="nonzero" fill="rgb(100%, 100%, 100%)" fill-opacity="1" d="M 1484.011719 328.53125 C 1497.179688 328.390625 1509.890625 334.949219 1519.070312 347.5 C 1531.308594 364.238281 1534.050781 394.96875 1524.128906 416.359375 C 1514.210938 437.738281 1501 447.808594 1487.671875 457.828125 C 1474.328125 467.851562 1461.769531 475.300781 1449.210938 479.300781 C 1445.589844 480.460938 1441.828125 481.820312 1437.140625 481.828125 C 1430.128906 483.128906 1425.160156 481.25 1420.410156 479.738281 C 1407.851562 475.730469 1395.28125 468.28125 1381.949219 458.261719 C 1368.609375 448.25 1355.398438 438.171875 1345.480469 416.789062 C 1335.558594 395.410156 1338.300781 364.679688 1350.550781 347.941406 C 1359.730469 335.378906 1372.441406 328.820312 1385.601562 328.96875 C 1389.988281 329 1394.429688 329.808594 1398.800781 331.371094 C 1414.851562 337.109375 1426.109375 347.941406 1434.648438 360.121094 C 1443.230469 347.761719 1454.570312 336.738281 1470.808594 330.941406 C 1475.179688 329.371094 1479.628906 328.578125 1484.011719 328.53125 "/>
<path fill-rule="nonzero" fill="rgb(100%, 50.193787%, 50.193787%)" fill-opacity="1" d="M 2433.898438 788.988281 L 1255.410156 785.359375 C 1230.960938 785.28125 1211.308594 804.621094 1211.339844 828.710938 L 1212.199219 1491.179688 C 1212.230469 1515.265625 1231.941406 1534.71875 1256.390625 1534.796875 L 2434.878906 1538.421875 C 2459.328125 1538.507812 2478.988281 1519.164062 2478.949219 1495.070312 L 2478.089844 832.609375 C 2478.070312 808.519531 2458.351562 789.070312 2433.898438 788.988281 "/>
<path fill-rule="nonzero" fill="rgb(100%, 100%, 100%)" fill-opacity="1" d="M 2113.089844 1093.039062 L 1922.570312 1093.808594 C 1914.070312 1093.769531 1907.230469 1101.949219 1907.261719 1112.128906 L 1907.839844 1520.28125 C 1907.859375 1530.464844 1914.71875 1538.695312 1923.230469 1538.730469 L 2113.738281 1537.953125 C 2122.25 1537.996094 2129.078125 1529.824219 2129.058594 1519.636719 L 2128.480469 1111.488281 C 2128.46875 1101.300781 2121.589844 1093.070312 2113.089844 1093.039062 "/>
<path fill-rule="nonzero" fill="rgb(100%, 100%, 100%)" fill-opacity="1" d="M 2129.339844 1091.011719 L 1905.648438 1091.761719 C 1897.109375 1091.71875 1890.25 1099.519531 1890.269531 1109.25 L 1890.851562 1145.699219 C 1890.871094 1155.429688 1897.769531 1163.289062 1906.308594 1163.328125 L 2129.988281 1162.578125 C 2138.539062 1162.621094 2145.398438 1154.820312 2145.378906 1145.089844 L 2144.800781 1108.640625 C 2144.640625 1098.910156 2137.878906 1091.050781 2129.339844 1091.011719 "/>
<path fill-rule="nonzero" fill="rgb(50.193787%, 70.117188%, 100%)" fill-opacity="1" d="M 1996.941406 1104.390625 L 1997.460938 1528.394531 C 1997.429688 1535.039062 1996.660156 1540.378906 2003.5 1540.359375 L 2025.570312 1539.910156 C 2032.410156 1539.894531 2031.671875 1534.527344 2031.699219 1527.882812 L 2031.171875 1103.878906 C 2031.199219 1097.238281 2031.980469 1091.769531 2025.128906 1091.921875 L 2003.070312 1092.371094 C 1996.230469 1092.511719 1996.96875 1097.75 1996.941406 1104.390625 "/>
<path fill-rule="nonzero" fill="rgb(50.193787%, 70.117188%, 100%)" fill-opacity="1" d="M 1758.789062 1170.539062 L 1540.921875 1171.179688 C 1532.421875 1171.148438 1525.589844 1177.871094 1525.609375 1186.25 L 1526.191406 1522.050781 C 1526.210938 1530.429688 1533.070312 1537.203125 1541.578125 1537.230469 L 1759.441406 1536.59375 C 1767.949219 1536.628906 1774.78125 1529.902344 1774.761719 1521.523438 L 1774.179688 1185.730469 C 1774.171875 1177.351562 1767.300781 1170.570312 1758.789062 1170.539062 "/>
<path fill-rule="nonzero" fill="rgb(50.193787%, 70.117188%, 100%)" fill-opacity="1" d="M 1775.039062 1170.109375 L 1524 1170.71875 C 1515.460938 1170.691406 1508.601562 1177.109375 1508.621094 1185.121094 L 1509.199219 1215.109375 C 1509.21875 1223.109375 1516.121094 1229.578125 1524.660156 1229.609375 L 1775.699219 1229 C 1784.238281 1229.03125 1791.101562 1222.609375 1791.078125 1214.601562 L 1790.5 1184.609375 C 1790.339844 1176.609375 1783.578125 1170.140625 1775.039062 1170.109375 "/>
<path fill-rule="nonzero" fill="rgb(100%, 50.193787%, 50.193787%)" fill-opacity="1" d="M 1615.5 1179.679688 L 1616.140625 1522.285156 C 1616.109375 1530.386719 1615.148438 1536.894531 1623.578125 1536.871094 L 1670.578125 1536.320312 C 1679 1536.304688 1678.089844 1529.761719 1678.121094 1521.660156 L 1677.480469 1179.050781 C 1677.511719 1170.949219 1678.46875 1164.371094 1670.050781 1164.460938 L 1623.050781 1165.019531 C 1614.621094 1165.121094 1615.53125 1171.578125 1615.5 1179.679688 "/>
<path fill-rule="nonzero" fill="rgb(50.193787%, 70.117188%, 100%)" fill-opacity="1" d="M 2017.519531 1075.949219 L 2014.640625 1116.21875 C 2012.511719 1158.351562 1982.371094 1180.789062 1957.878906 1207.210938 L 1951.25 1168.488281 L 1913.78125 1164.53125 C 1952.699219 1148.910156 1989.679688 1127.078125 2017.519531 1075.949219 "/>
<path fill-rule="nonzero" fill="rgb(50.193787%, 70.117188%, 100%)" fill-opacity="1" d="M 1990.691406 1077.421875 L 2024.511719 1086.058594 C 2045.769531 1092.269531 2066.589844 1132.441406 2083.550781 1165.019531 L 2043.949219 1161.359375 L 2030.261719 1196.960938 C 2018.460938 1156.390625 2010.308594 1113.921875 1990.691406 1077.421875 "/>
<path fill-rule="nonzero" fill="rgb(50.193787%, 70.117188%, 100%)" fill-opacity="1" d="M 2103.160156 1094.359375 C 2103.371094 1102.558594 2099.660156 1110.550781 2092.390625 1116.390625 C 2082.691406 1124.191406 2064.691406 1126.191406 2052.050781 1120.210938 C 2039.398438 1114.230469 2033.359375 1106.089844 2027.351562 1097.878906 C 2021.328125 1089.660156 2016.839844 1081.898438 2014.359375 1074.109375 C 2013.640625 1071.859375 2012.808594 1069.539062 2012.75 1066.609375 C 2011.921875 1062.25 2012.96875 1059.140625 2013.808594 1056.160156 C 2016.03125 1048.289062 2020.28125 1040.390625 2026.019531 1031.980469 C 2031.761719 1023.570312 2037.53125 1015.238281 2049.980469 1008.859375 C 2062.421875 1002.46875 2080.46875 1003.878906 2090.421875 1011.351562 C 2097.871094 1016.960938 2104.878906 1025.378906 2101.898438 1033.019531 C 2091.609375 1059.449219 2102.5 1074.390625 2103.160156 1094.359375 "/>
<path fill-rule="nonzero" fill="rgb(50.193787%, 70.117188%, 100%)" fill-opacity="1" d="M 1931.25 1097.171875 C 1931.300781 1105.371094 1935.28125 1113.230469 1942.738281 1118.839844 C 1952.679688 1126.308594 1970.730469 1127.71875 1983.179688 1121.328125 C 1995.621094 1114.949219 2001.390625 1106.621094 2007.140625 1098.210938 C 2012.878906 1089.800781 2017.121094 1081.898438 2019.339844 1074.03125 C 2019.980469 1071.761719 2020.738281 1069.410156 2020.699219 1066.480469 C 2021.390625 1062.101562 2020.238281 1059.019531 2019.300781 1056.070312 C 2016.828125 1048.28125 2012.328125 1040.519531 2006.308594 1032.300781 C 2000.300781 1024.089844 1994.261719 1015.949219 1981.609375 1009.96875 C 1968.96875 1003.988281 1950.96875 1006 1941.28125 1013.789062 C 1934.011719 1019.628906 1926.660156 1028.570312 1930.511719 1035.820312 C 1946.480469 1065.980469 1931.25 1075.78125 1931.25 1097.171875 "/>
<path fill-rule="nonzero" fill="rgb(50.193787%, 70.117188%, 100%)" fill-opacity="1" d="M 1994.019531 1065.601562 L 1994.101562 1070.671875 C 1994.371094 1087.339844 2005.5 1100.589844 2019.058594 1100.371094 C 2032.621094 1100.148438 2043.308594 1086.539062 2043.039062 1069.871094 L 2042.949219 1064.800781 C 2042.679688 1048.128906 2031.550781 1034.878906 2017.988281 1035.109375 C 2004.441406 1035.328125 1993.75 1048.929688 1994.019531 1065.601562 "/>
<path fill-rule="nonzero" fill="rgb(33.325195%, 59.959412%, 100%)" fill-opacity="1" d="M 1980.519531 1323.851562 L 1753.300781 1324.351562 C 1746.339844 1324.320312 1740.761719 1329.550781 1740.78125 1336.058594 L 1741.25 1345.410156 C 1741.269531 1351.921875 1746.878906 1357.179688 1753.828125 1357.210938 L 1981.050781 1356.710938 C 1988.011719 1356.738281 1993.589844 1351.511719 1993.578125 1345 L 1993.101562 1335.648438 C 1992.769531 1329.148438 1987.46875 1323.871094 1980.519531 1323.851562 "/>
<path fill-rule="nonzero" fill="rgb(50.193787%, 70.117188%, 100%)" fill-opacity="1" d="M 1969.699219 1271.851562 C 1964.238281 1266.640625 1958.179688 1263.46875 1950.488281 1262.738281 C 1942.808594 1262.011719 1934.140625 1263.460938 1926.601562 1271.128906 C 1919.070312 1278.800781 1907.53125 1315.511719 1907.53125 1315.511719 C 1904.871094 1323.179688 1918.960938 1328.5 1920.601562 1320.558594 C 1920.601562 1320.558594 1924.710938 1291.191406 1934.851562 1281.21875 C 1938.910156 1277.230469 1944.761719 1274 1951.230469 1275.269531 C 1957.699219 1276.550781 1965.820312 1283.339844 1966.449219 1288.828125 C 1967.070312 1294.320312 1965.039062 1299.890625 1961.328125 1303.761719 C 1951.359375 1314.191406 1920.550781 1320.609375 1920.550781 1320.609375 C 1913.800781 1323.140625 1917.039062 1335.699219 1924.28125 1333.550781 C 1924.28125 1333.550781 1960.101562 1324.109375 1971.78125 1311.578125 C 1976.921875 1306.070312 1980.210938 1298 1979.371094 1290.71875 C 1978.539062 1283.429688 1975.148438 1277.058594 1969.699219 1271.851562 "/>
<path fill-rule="nonzero" fill="rgb(100%, 90.234375%, 50.193787%)" fill-opacity="1" d="M 1847.039062 1271.851562 C 1852.488281 1266.640625 1858.558594 1263.46875 1866.238281 1262.738281 C 1873.929688 1262.011719 1882.601562 1263.460938 1890.128906 1271.128906 C 1897.671875 1278.800781 1909.199219 1315.511719 1909.199219 1315.511719 C 1911.859375 1323.179688 1897.78125 1328.5 1896.128906 1320.558594 C 1896.128906 1320.558594 1892.03125 1291.191406 1881.890625 1281.21875 C 1877.820312 1277.230469 1871.980469 1274 1865.511719 1275.269531 C 1859.039062 1276.550781 1850.921875 1283.339844 1850.289062 1288.828125 C 1849.660156 1294.320312 1851.699219 1299.890625 1855.398438 1303.761719 C 1865.378906 1314.191406 1896.191406 1320.609375 1896.191406 1320.609375 C 1902.941406 1323.140625 1899.699219 1335.699219 1892.460938 1333.550781 C 1892.460938 1333.550781 1856.640625 1324.109375 1844.949219 1311.578125 C 1839.820312 1306.070312 1836.53125 1298 1837.359375 1290.71875 C 1838.199219 1283.429688 1841.589844 1277.058594 1847.039062 1271.851562 "/>
<path fill-rule="nonzero" fill="rgb(100%, 50.193787%, 50.193787%)" fill-opacity="1" d="M 1891.269531 1333.128906 L 1891.789062 1528.394531 C 1891.769531 1535.039062 1890.988281 1540.378906 1897.828125 1540.359375 L 1919.898438 1539.910156 C 1926.738281 1539.894531 1926 1534.527344 1926.03125 1527.882812 L 1925.5 1332.621094 C 1925.53125 1325.980469 1926.308594 1320.519531 1919.46875 1320.660156 L 1897.398438 1321.109375 C 1890.558594 1321.25 1891.300781 1326.488281 1891.269531 1333.128906 "/>
<path fill-rule="nonzero" fill="rgb(100%, 90.234375%, 50.193787%)" fill-opacity="1" d="M 1967.289062 1325.929688 L 1767.070312 1326.449219 C 1760.148438 1326.421875 1754.589844 1331.890625 1754.609375 1338.710938 L 1755.078125 1526.308594 C 1755.089844 1533.128906 1760.679688 1538.640625 1767.609375 1538.664062 L 1967.828125 1538.144531 C 1974.75 1538.171875 1980.308594 1532.699219 1980.289062 1525.878906 L 1979.820312 1338.28125 C 1979.800781 1331.460938 1974.21875 1325.949219 1967.289062 1325.929688 "/>
<path fill-rule="nonzero" fill="rgb(100%, 90.234375%, 50.193787%)" fill-opacity="1" d="M 1980.519531 1323.851562 L 1753.300781 1324.351562 C 1746.339844 1324.320312 1740.761719 1329.550781 1740.78125 1336.058594 L 1741.25 1345.410156 C 1741.269531 1351.921875 1746.878906 1357.179688 1753.828125 1357.210938 L 1981.050781 1356.710938 C 1988.011719 1356.738281 1993.589844 1351.511719 1993.578125 1345 L 1993.101562 1335.648438 C 1992.769531 1329.148438 1987.46875 1323.871094 1980.519531 1323.851562 "/>
<path fill-rule="nonzero" fill="rgb(44.309998%, 76.951599%, 49.414062%)" fill-opacity="1" d="M 1969.699219 1271.851562 C 1964.238281 1266.640625 1958.179688 1263.46875 1950.488281 1262.738281 C 1942.808594 1262.011719 1934.140625 1263.460938 1926.601562 1271.128906 C 1919.070312 1278.800781 1907.53125 1315.511719 1907.53125 1315.511719 C 1904.871094 1323.179688 1918.960938 1328.5 1920.601562 1320.558594 C 1920.601562 1320.558594 1924.710938 1291.191406 1934.851562 1281.21875 C 1938.910156 1277.230469 1944.761719 1274 1951.230469 1275.269531 C 1957.699219 1276.550781 1965.820312 1283.339844 1966.449219 1288.828125 C 1967.070312 1294.320312 1965.039062 1299.890625 1961.328125 1303.761719 C 1951.359375 1314.191406 1920.550781 1320.609375 1920.550781 1320.609375 C 1913.800781 1323.140625 1917.039062 1335.699219 1924.28125 1333.550781 C 1924.28125 1333.550781 1960.101562 1324.109375 1971.78125 1311.578125 C 1976.921875 1306.070312 1980.210938 1298 1979.371094 1290.71875 C 1978.539062 1283.429688 1975.148438 1277.058594 1969.699219 1271.851562 "/>
<path fill-rule="nonzero" fill="rgb(44.309998%, 76.951599%, 49.414062%)" fill-opacity="1" d="M 1847.039062 1271.851562 C 1852.488281 1266.640625 1858.558594 1263.46875 1866.238281 1262.738281 C 1873.929688 1262.011719 1882.601562 1263.460938 1890.128906 1271.128906 C 1897.671875 1278.800781 1909.199219 1315.511719 1909.199219 1315.511719 C 1911.859375 1323.179688 1897.78125 1328.5 1896.128906 1320.558594 C 1896.128906 1320.558594 1892.03125 1291.191406 1881.890625 1281.21875 C 1877.820312 1277.230469 1871.980469 1274 1865.511719 1275.269531 C 1859.039062 1276.550781 1850.921875 1283.339844 1850.289062 1288.828125 C 1849.660156 1294.320312 1851.699219 1299.890625 1855.398438 1303.761719 C 1865.378906 1314.191406 1896.191406 1320.609375 1896.191406 1320.609375 C 1902.941406 1323.140625 1899.699219 1335.699219 1892.460938 1333.550781 C 1892.460938 1333.550781 1856.640625 1324.109375 1844.949219 1311.578125 C 1839.820312 1306.070312 1836.53125 1298 1837.359375 1290.71875 C 1838.199219 1283.429688 1841.589844 1277.058594 1847.039062 1271.851562 "/>
<path fill-rule="nonzero" fill="rgb(44.309998%, 76.951599%, 49.414062%)" fill-opacity="1" d="M 1891.269531 1333.128906 L 1891.789062 1528.394531 C 1891.769531 1535.039062 1890.988281 1540.378906 1897.828125 1540.359375 L 1919.898438 1539.910156 C 1926.738281 1539.894531 1926 1534.527344 1926.03125 1527.882812 L 1925.5 1332.621094 C 1925.53125 1325.980469 1926.308594 1320.519531 1919.46875 1320.660156 L 1897.398438 1321.109375 C 1890.558594 1321.25 1891.300781 1326.488281 1891.269531 1333.128906 "/>
<path fill-rule="nonzero" fill="rgb(100%, 100%, 100%)" fill-opacity="1" d="M 1323.460938 1263.398438 C 1332.5 1267.371094 1355.71875 1239.429688 1365.359375 1237.320312 C 1375.011719 1235.210938 1407.769531 1250.921875 1414.328125 1243.550781 C 1420.898438 1236.171875 1401.5 1205.460938 1402.46875 1195.628906 C 1403.449219 1185.808594 1428.511719 1159.511719 1423.53125 1150.988281 C 1418.539062 1142.46875 1383.339844 1151.421875 1374.289062 1147.460938 C 1365.25 1143.488281 1347.988281 1111.53125 1338.339844 1113.640625 C 1328.699219 1115.738281 1326.328125 1152 1319.769531 1159.371094 C 1313.210938 1166.75 1277.46875 1173.289062 1276.488281 1183.109375 C 1275.519531 1192.941406 1309.269531 1206.390625 1314.25 1214.910156 C 1319.238281 1223.429688 1314.421875 1259.441406 1323.460938 1263.398438 "/>
<path fill-rule="nonzero" fill="rgb(100%, 83.201599%, 16.479492%)" fill-opacity="1" d="M 2371.988281 1041.71875 C 2368.539062 1037.03125 2348.449219 1044.449219 2342.898438 1042.691406 C 2337.359375 1040.921875 2325.261719 1023.238281 2319.738281 1025.070312 C 2314.210938 1026.898438 2315.058594 1048.300781 2311.671875 1053.03125 C 2308.269531 1057.761719 2287.71875 1063.800781 2287.761719 1069.621094 C 2287.789062 1075.441406 2308.410156 1081.238281 2311.851562 1085.929688 C 2315.300781 1090.621094 2314.691406 1112.03125 2320.238281 1113.800781 C 2325.789062 1115.570312 2337.679688 1097.75 2343.199219 1095.921875 C 2348.730469 1094.089844 2368.898438 1101.289062 2372.300781 1096.558594 C 2375.691406 1091.828125 2362.429688 1075.019531 2362.390625 1069.199219 C 2362.359375 1063.371094 2375.429688 1046.410156 2371.988281 1041.71875 "/>
<path fill-rule="nonzero" fill="rgb(100%, 100%, 100%)" fill-opacity="1" d="M 1559.820312 911.28125 L 1559.820312 929.691406 C 1559.820312 933.359375 1559.820312 933.359375 1559.101562 935.589844 C 1558.378906 937.75 1558.378906 937.75 1556.421875 939.519531 C 1554.519531 941.289062 1554.519531 941.289062 1551.5 942.929688 C 1542.789062 947.648438 1542.789062 947.648438 1534.730469 949.808594 C 1526.660156 951.96875 1526.660156 951.96875 1517.160156 951.96875 C 1506.089844 951.96875 1506.089844 951.96875 1496.980469 948.570312 C 1487.871094 945.160156 1487.871094 945.160156 1481.449219 938.671875 C 1475.019531 932.179688 1475.019531 932.179688 1471.550781 922.941406 C 1468.140625 913.699219 1468.140625 913.699219 1468.140625 902.300781 C 1468.140625 891.089844 1468.140625 891.089844 1471.488281 881.789062 C 1474.828125 872.480469 1474.828125 872.480469 1481.320312 865.988281 C 1487.800781 859.511719 1487.800781 859.511719 1497.109375 856.101562 C 1506.410156 852.621094 1506.410156 852.621094 1518.210938 852.621094 C 1527.910156 852.621094 1527.910156 852.621094 1535.378906 855.25 C 1542.851562 857.800781 1542.851562 857.800781 1547.5 861.730469 C 1552.160156 865.671875 1552.160156 865.671875 1554.519531 870.058594 C 1556.878906 874.449219 1556.878906 874.449219 1556.878906 877.859375 C 1556.878906 881.53125 1556.878906 881.53125 1554.121094 884.148438 C 1551.441406 886.699219 1551.441406 886.699219 1547.640625 886.699219 C 1545.539062 886.699219 1545.539062 886.699219 1543.570312 885.71875 C 1541.671875 884.738281 1541.671875 884.738281 1540.359375 882.96875 C 1536.761719 877.328125 1536.761719 877.328125 1534.269531 874.449219 C 1531.78125 871.558594 1531.78125 871.558594 1527.519531 869.601562 C 1523.320312 867.628906 1523.320312 867.628906 1516.769531 867.628906 C 1510.019531 867.628906 1510.019531 867.628906 1504.710938 869.988281 C 1499.398438 872.289062 1499.398438 872.289062 1495.601562 876.738281 C 1491.871094 881.128906 1491.871094 881.128906 1489.839844 887.550781 C 1487.871094 893.980469 1487.871094 893.980469 1487.871094 901.769531 C 1487.871094 918.679688 1487.871094 918.679688 1495.601562 927.789062 C 1503.398438 936.898438 1503.398438 936.898438 1517.289062 936.898438 C 1524.039062 936.898438 1524.039062 936.898438 1529.941406 935.128906 C 1535.910156 933.359375 1535.910156 933.359375 1542 930.089844 L 1542 914.488281 L 1526.929688 914.488281 C 1521.488281 914.488281 1521.488281 914.488281 1518.671875 912.851562 C 1515.921875 911.210938 1515.921875 911.210938 1515.921875 907.28125 C 1515.921875 904.070312 1515.921875 904.070312 1518.210938 901.96875 C 1520.570312 899.871094 1520.570312 899.871094 1524.570312 899.871094 L 1546.648438 899.871094 C 1550.71875 899.871094 1550.71875 899.871094 1553.53125 900.601562 C 1556.351562 901.320312 1556.351562 901.320312 1558.058594 903.808594 C 1559.820312 906.300781 1559.820312 906.300781 1559.820312 911.28125 "/>
<path fill-rule="nonzero" fill="rgb(100%, 100%, 100%)" fill-opacity="1" d="M 1582.878906 940.109375 L 1582.878906 864.421875 C 1582.878906 858.519531 1582.878906 858.519531 1585.570312 855.570312 C 1588.261719 852.621094 1588.261719 852.621094 1592.519531 852.621094 C 1596.910156 852.621094 1596.910156 852.621094 1599.589844 855.570312 C 1602.351562 858.460938 1602.351562 858.460938 1602.351562 864.421875 L 1602.351562 940.109375 C 1602.351562 946.078125 1602.351562 946.078125 1599.589844 949.019531 C 1596.910156 951.96875 1596.910156 951.96875 1592.519531 951.96875 C 1588.320312 951.96875 1588.320312 951.96875 1585.570312 949.019531 C 1582.878906 946.011719 1582.878906 946.011719 1582.878906 940.109375 "/>
<path fill-rule="nonzero" fill="rgb(100%, 100%, 100%)" fill-opacity="1" d="M 1685.039062 869.269531 L 1646.699219 869.269531 L 1646.699219 893.851562 L 1678.75 893.851562 C 1683.199219 893.851562 1683.199219 893.851562 1685.371094 895.878906 C 1687.589844 897.839844 1687.589844 897.839844 1687.589844 901.191406 C 1687.589844 904.53125 1687.589844 904.53125 1685.371094 906.488281 C 1683.140625 908.460938 1683.140625 908.460938 1678.75 908.460938 L 1646.699219 908.460938 L 1646.699219 940.109375 C 1646.699219 946.140625 1646.699219 946.140625 1643.949219 949.089844 C 1641.261719 951.96875 1641.261719 951.96875 1637 951.96875 C 1632.679688 951.96875 1632.679688 951.96875 1629.921875 949.019531 C 1627.238281 946.078125 1627.238281 946.078125 1627.238281 940.109375 L 1627.238281 866.191406 C 1627.238281 862 1627.238281 862 1628.480469 859.371094 C 1629.730469 856.691406 1629.730469 856.691406 1632.351562 855.511719 C 1635.039062 854.261719 1635.039062 854.261719 1639.160156 854.261719 L 1685.039062 854.261719 C 1689.691406 854.261719 1689.691406 854.261719 1691.921875 856.359375 C 1694.210938 858.390625 1694.210938 858.390625 1694.210938 861.730469 C 1694.210938 865.140625 1694.210938 865.140625 1691.921875 867.238281 C 1689.691406 869.269531 1689.691406 869.269531 1685.039062 869.269531 "/>
<path fill-rule="nonzero" fill="rgb(100%, 100%, 100%)" fill-opacity="1" d="M 1774.609375 870.320312 L 1753.378906 870.320312 L 1753.378906 940.109375 C 1753.378906 946.140625 1753.378906 946.140625 1750.691406 949.089844 C 1748 951.96875 1748 951.96875 1743.738281 951.96875 C 1739.421875 951.96875 1739.421875 951.96875 1736.671875 949.019531 C 1733.980469 946.078125 1733.980469 946.078125 1733.980469 940.109375 L 1733.980469 870.320312 L 1712.75 870.320312 C 1707.769531 870.320312 1707.769531 870.320312 1705.339844 868.160156 C 1702.921875 865.929688 1702.921875 865.929688 1702.921875 862.320312 C 1702.921875 858.589844 1702.921875 858.589844 1705.410156 856.429688 C 1707.960938 854.261719 1707.960938 854.261719 1712.75 854.261719 L 1774.609375 854.261719 C 1779.660156 854.261719 1779.660156 854.261719 1782.078125 856.488281 C 1784.570312 858.71875 1784.570312 858.71875 1784.570312 862.320312 C 1784.570312 865.929688 1784.570312 865.929688 1782.078125 868.160156 C 1779.589844 870.320312 1779.589844 870.320312 1774.609375 870.320312 "/>
<path fill-rule="nonzero" fill="rgb(100%, 100%, 100%)" fill-opacity="1" d="M 1918.699219 919.988281 C 1918.699219 924.578125 1918.699219 924.578125 1916.398438 929.949219 C 1914.179688 935.261719 1914.179688 935.261719 1909.328125 940.441406 C 1904.480469 945.550781 1904.480469 945.550781 1896.941406 948.761719 C 1889.398438 951.96875 1889.398438 951.96875 1879.378906 951.96875 C 1871.78125 951.96875 1871.78125 951.96875 1865.550781 950.53125 C 1859.320312 949.089844 1859.320312 949.089844 1854.210938 946.078125 C 1849.171875 943 1849.171875 943 1844.910156 938.019531 C 1841.109375 933.488281 1841.109375 933.488281 1838.421875 927.921875 C 1835.730469 922.289062 1835.730469 922.289062 1834.359375 915.929688 C 1833.050781 909.570312 1833.050781 909.570312 1833.050781 902.429688 C 1833.050781 890.828125 1833.050781 890.828125 1836.390625 881.660156 C 1839.800781 872.480469 1839.800781 872.480469 1846.089844 865.988281 C 1852.378906 859.441406 1852.378906 859.441406 1860.828125 856.03125 C 1869.289062 852.621094 1869.289062 852.621094 1878.851562 852.621094 C 1890.519531 852.621094 1890.519531 852.621094 1899.628906 857.28125 C 1908.738281 861.929688 1908.738281 861.929688 1913.589844 868.808594 C 1918.441406 875.628906 1918.441406 875.628906 1918.441406 881.71875 C 1918.441406 885.058594 1918.441406 885.058594 1916.078125 887.621094 C 1913.71875 890.179688 1913.71875 890.179688 1910.371094 890.179688 C 1906.640625 890.179688 1906.640625 890.179688 1904.738281 888.410156 C 1902.898438 886.640625 1902.898438 886.640625 1900.609375 882.308594 C 1896.808594 875.171875 1896.808594 875.171875 1891.628906 871.628906 C 1886.519531 868.089844 1886.519531 868.089844 1878.980469 868.089844 C 1866.988281 868.089844 1866.988281 868.089844 1859.851562 877.199219 C 1852.769531 886.308594 1852.769531 886.308594 1852.769531 903.089844 C 1852.769531 914.289062 1852.769531 914.289062 1855.921875 921.761719 C 1859.058594 929.171875 1859.058594 929.171875 1864.828125 932.839844 C 1870.601562 936.511719 1870.601562 936.511719 1878.328125 936.511719 C 1886.71875 936.511719 1886.71875 936.511719 1892.480469 932.378906 C 1898.320312 928.191406 1898.320312 928.191406 1901.269531 920.121094 C 1902.511719 916.320312 1902.511719 916.320312 1904.351562 913.960938 C 1906.179688 911.539062 1906.179688 911.539062 1910.238281 911.539062 C 1913.71875 911.539062 1913.71875 911.539062 1916.210938 913.960938 C 1918.699219 916.390625 1918.699219 916.390625 1918.699219 919.988281 "/>
<path fill-rule="nonzero" fill="rgb(100%, 100%, 100%)" fill-opacity="1" d="M 2001.261719 939.460938 L 1996.671875 927.398438 L 1957.609375 927.398438 L 1953.03125 939.71875 C 1950.339844 946.929688 1950.339844 946.929688 1948.441406 949.480469 C 1946.539062 951.96875 1946.539062 951.96875 1942.210938 951.96875 C 1938.539062 951.96875 1938.539062 951.96875 1935.730469 949.289062 C 1932.910156 946.601562 1932.910156 946.601562 1932.910156 943.191406 C 1932.910156 941.230469 1932.910156 941.230469 1933.558594 939.128906 C 1934.21875 937.03125 1934.21875 937.03125 1935.730469 933.300781 L 1960.300781 870.910156 C 1961.351562 868.21875 1961.351562 868.21875 1962.789062 864.488281 C 1964.300781 860.691406 1964.300781 860.691406 1965.941406 858.199219 C 1967.640625 855.710938 1967.640625 855.710938 1970.328125 854.199219 C 1973.078125 852.621094 1973.078125 852.621094 1977.078125 852.621094 C 1981.140625 852.621094 1981.140625 852.621094 1983.828125 854.199219 C 1986.578125 855.710938 1986.578125 855.710938 1988.21875 858.128906 C 1989.921875 860.550781 1989.921875 860.550781 1991.039062 863.371094 C 1992.21875 866.121094 1992.21875 866.121094 1993.980469 870.78125 L 2019.078125 932.769531 C 2022.03125 939.851562 2022.03125 939.851562 2022.03125 943.058594 C 2022.03125 946.398438 2022.03125 946.398438 2019.210938 949.21875 C 2016.460938 951.96875 2016.460938 951.96875 2012.53125 951.96875 C 2010.238281 951.96875 2010.238281 951.96875 2008.601562 951.121094 C 2006.960938 950.339844 2006.960938 950.339844 2005.851562 948.960938 C 2004.730469 947.519531 2004.730469 947.519531 2003.421875 944.628906 C 2002.179688 941.691406 2002.179688 941.691406 2001.261719 939.460938 Z M 1962.730469 912.78125 L 1991.429688 912.78125 L 1976.949219 873.140625 Z M 1962.730469 912.78125 "/>
<path fill-rule="nonzero" fill="rgb(100%, 100%, 100%)" fill-opacity="1" d="M 2065.988281 909.25 L 2059.179688 909.25 L 2059.179688 940.109375 C 2059.179688 946.210938 2059.179688 946.210938 2056.488281 949.089844 C 2053.808594 951.96875 2053.808594 951.96875 2049.480469 951.96875 C 2044.828125 951.96875 2044.828125 951.96875 2042.269531 948.960938 C 2039.71875 945.941406 2039.71875 945.941406 2039.71875 940.109375 L 2039.71875 866.191406 C 2039.71875 859.898438 2039.71875 859.898438 2042.53125 857.078125 C 2045.351562 854.261719 2045.351562 854.261719 2051.640625 854.261719 L 2083.300781 854.261719 C 2089.851562 854.261719 2089.851562 854.261719 2094.5 854.851562 C 2099.148438 855.378906 2099.148438 855.378906 2102.890625 857.078125 C 2107.410156 858.980469 2107.410156 858.980469 2110.890625 862.519531 C 2114.359375 866.058594 2114.359375 866.058594 2116.128906 870.78125 C 2117.960938 875.429688 2117.960938 875.429688 2117.960938 880.671875 C 2117.960938 891.421875 2117.960938 891.421875 2111.871094 897.839844 C 2105.839844 904.269531 2105.839844 904.269531 2093.519531 906.949219 C 2098.699219 909.699219 2098.699219 909.699219 2103.410156 915.078125 C 2108.128906 920.449219 2108.128906 920.449219 2111.800781 926.550781 C 2115.539062 932.578125 2115.539062 932.578125 2117.570312 937.488281 C 2119.671875 942.339844 2119.671875 942.339844 2119.671875 944.179688 C 2119.671875 946.078125 2119.671875 946.078125 2118.421875 947.980469 C 2117.238281 949.808594 2117.238281 949.808594 2115.140625 950.859375 C 2113.050781 951.96875 2113.050781 951.96875 2110.300781 951.96875 C 2107.019531 951.96875 2107.019531 951.96875 2104.789062 950.398438 C 2102.558594 948.890625 2102.558594 948.890625 2100.921875 946.53125 C 2099.351562 944.179688 2099.351562 944.179688 2096.601562 939.589844 L 2088.800781 926.609375 C 2084.609375 919.46875 2084.609375 919.46875 2081.261719 915.730469 C 2077.988281 912 2077.988281 912 2074.578125 910.621094 C 2071.171875 909.25 2071.171875 909.25 2065.988281 909.25 Z M 2077.140625 868.878906 L 2059.179688 868.878906 L 2059.179688 895.289062 L 2076.609375 895.289062 C 2083.621094 895.289062 2083.621094 895.289062 2088.410156 894.109375 C 2093.191406 892.859375 2093.191406 892.859375 2095.679688 889.980469 C 2098.238281 887.03125 2098.238281 887.03125 2098.238281 881.921875 C 2098.238281 877.921875 2098.238281 877.921875 2096.210938 874.910156 C 2094.171875 871.828125 2094.171875 871.828125 2090.570312 870.320312 C 2087.160156 868.878906 2087.160156 868.878906 2077.140625 868.878906 "/>
<path fill-rule="nonzero" fill="rgb(100%, 100%, 100%)" fill-opacity="1" d="M 2151.960938 854.261719 L 2177.328125 854.261719 C 2187.21875 854.261719 2187.21875 854.261719 2194.300781 856.101562 C 2201.378906 857.929688 2201.378906 857.929688 2207.140625 862.980469 C 2222.148438 875.820312 2222.148438 875.820312 2222.148438 902.039062 C 2222.148438 910.691406 2222.148438 910.691406 2220.640625 917.828125 C 2219.140625 924.96875 2219.140625 924.96875 2215.988281 930.738281 C 2212.839844 936.441406 2212.839844 936.441406 2207.929688 940.960938 C 2204.058594 944.441406 2204.058594 944.441406 2199.480469 946.53125 C 2194.890625 948.628906 2194.890625 948.628906 2189.578125 949.480469 C 2184.339844 950.339844 2184.339844 950.339844 2177.71875 950.339844 L 2152.359375 950.339844 C 2147.050781 950.339844 2147.050781 950.339844 2144.359375 948.761719 C 2141.679688 947.121094 2141.679688 947.121094 2140.820312 944.238281 C 2140.039062 941.289062 2140.039062 941.289062 2140.039062 936.640625 L 2140.039062 866.191406 C 2140.039062 859.898438 2140.039062 859.898438 2142.851562 857.078125 C 2145.671875 854.261719 2145.671875 854.261719 2151.960938 854.261719 Z M 2159.5 869.660156 L 2159.5 934.871094 L 2174.25 934.871094 C 2179.089844 934.871094 2179.089844 934.871094 2181.851562 934.609375 C 2184.601562 934.339844 2184.601562 934.339844 2187.550781 933.300781 C 2190.5 932.25 2190.5 932.25 2192.660156 930.351562 C 2202.421875 922.089844 2202.421875 922.089844 2202.421875 901.910156 C 2202.421875 887.691406 2202.421875 887.691406 2198.101562 880.609375 C 2193.839844 873.53125 2193.839844 873.53125 2187.550781 871.628906 C 2181.261719 869.660156 2181.261719 869.660156 2172.339844 869.660156 L 2159.5 869.660156 "/>
<path fill-rule="nonzero" fill="rgb(100%, 80.076599%, 0%)" fill-opacity="1" d="M 2089.03125 1979.253906 C 2089.03125 2013.472656 2090.371094 2109.539062 2090.371094 2109.539062 C 2090.371094 2157.398438 2272.078125 2155.277344 2272.078125 2113.164062 C 2272.078125 2113.164062 2273.011719 2049.632812 2273.011719 1969.785156 C 2273.011719 1949.375 2263.601562 1939.519531 2252.679688 1939.636719 C 2223.730469 1939.949219 2139.339844 1938.652344 2110.410156 1938.652344 C 2100.109375 1938.652344 2089.03125 1940.714844 2089.03125 1963.699219 L 2089.03125 1979.253906 "/>
<path fill-rule="nonzero" fill="rgb(62.693787%, 53.709412%, 17.259216%)" fill-opacity="1" d="M 2091.320312 1950.292969 C 2091.320312 1989.90625 2267 1988.148438 2267 1953.289062 C 2267 1953.289062 2266.761719 2018.441406 2266.761719 1952.355469 C 2266.589844 1917.410156 2092.550781 1918.023438 2091.328125 1950.996094 C 2091.328125 1991.230469 2091.320312 1910.054688 2091.320312 1950.292969 "/>
<path fill-rule="nonzero" fill="rgb(44.309998%, 76.951599%, 49.414062%)" fill-opacity="1" d="M 2122.339844 1915.953125 C 2147.078125 1936.796875 2197.859375 1939.851562 2216.179688 1940.65625 C 2241.261719 1941.761719 2269.640625 1930.019531 2274.300781 1908.347656 C 2284.570312 1860.59375 2242.589844 1837.1875 2186.820312 1790.796875 C 2155.320312 1764.589844 2136.410156 1751.511719 2122.488281 1723.878906 C 2102.761719 1684.714844 2127.269531 1618.34375 2100.53125 1594.164062 C 2073.800781 1569.988281 2041.929688 1574.511719 2018.71875 1588.9375 C 2001.089844 1599.898438 1992.75 1622.535156 1994.769531 1646.441406 C 1996.800781 1670.347656 2024.351562 1700.695312 2032.808594 1719.578125 C 2065.929688 1793.46875 2067.328125 1869.597656 2122.339844 1915.953125 "/>
<path fill-rule="nonzero" fill="rgb(100%, 100%, 100%)" fill-opacity="1" d="M 2064.191406 1622.835938 C 2064.140625 1623.042969 2064.121094 1623.253906 2064.128906 1623.46875 C 2065.179688 1678.351562 2066.121094 1733.515625 2086.890625 1774.230469 C 2107.660156 1814.945312 2147.679688 1840.242188 2166.351562 1865.820312 C 2185.011719 1891.402344 2183.648438 1918.035156 2182.25 1945.503906 C 2182.179688 1946.359375 2182.589844 1947.179688 2183.300781 1947.652344 C 2184.019531 1948.121094 2184.929688 1948.171875 2185.691406 1947.773438 C 2186.449219 1947.378906 2186.941406 1946.601562 2186.960938 1945.746094 C 2188.359375 1918.277344 2189.808594 1889.972656 2170.160156 1863.039062 C 2150.511719 1836.101562 2111.101562 1811.300781 2091.089844 1772.085938 C 2071.089844 1732.867188 2069.898438 1678.261719 2068.851562 1623.375 C 2068.839844 1622.179688 2067.941406 1621.179688 2066.761719 1621.042969 C 2065.570312 1620.90625 2064.46875 1621.675781 2064.191406 1622.835938 "/>
<path fill-rule="nonzero" fill="rgb(44.309998%, 76.951599%, 49.414062%)" fill-opacity="1" d="M 2171.910156 1739.328125 C 2179.121094 1788.882812 2140.171875 1865.910156 2160.109375 1889.035156 C 2187.390625 1937.628906 2269.828125 1956.378906 2305.238281 1888.199219 C 2339.019531 1823.144531 2347.601562 1787.113281 2321.359375 1665.964844 C 2307.441406 1601.726562 2280.621094 1592.214844 2325.671875 1520.261719 C 2348.089844 1484.449219 2372.511719 1432.410156 2373.28125 1403.648438 C 2374.050781 1364.640625 2342.078125 1320.300781 2304.890625 1307.578125 C 2269.210938 1295.378906 2227.511719 1305.691406 2196.589844 1340.28125 C 2165.660156 1374.871094 2152.101562 1401.5 2141.300781 1453.640625 C 2109.539062 1606.980469 2164.351562 1687.402344 2171.910156 1739.328125 "/>
<path fill-rule="nonzero" fill="rgb(100%, 100%, 100%)" fill-opacity="1" d="M 2276.910156 1416.71875 C 2276.730469 1416.910156 2276.570312 1417.128906 2276.441406 1417.371094 C 2242.949219 1478.050781 2209.148438 1538.953125 2206.160156 1596.585938 C 2203.160156 1654.21875 2230.890625 1707.015625 2232.980469 1751.15625 C 2235.078125 1795.296875 2212.191406 1832.75 2198.398438 1864.183594 C 2184.609375 1895.613281 2180.558594 1920.195312 2176.589844 1944.386719 C 2176.398438 1945.445312 2176.800781 1946.519531 2177.628906 1947.203125 C 2178.449219 1947.886719 2179.578125 1948.074219 2180.589844 1947.691406 C 2181.589844 1947.308594 2182.308594 1946.414062 2182.46875 1945.355469 C 2186.449219 1921.160156 2190.351562 1897.359375 2203.859375 1866.578125 C 2217.371094 1835.796875 2241.140625 1797.214844 2238.941406 1750.871094 C 2236.738281 1704.53125 2209.230469 1652.402344 2212.109375 1596.894531 C 2214.988281 1541.382812 2248.171875 1480.929688 2281.671875 1420.25 C 2282.410156 1418.941406 2282.058594 1417.28125 2280.851562 1416.378906 C 2279.640625 1415.480469 2277.949219 1415.628906 2276.910156 1416.71875 "/>
<path fill-rule="nonzero" fill="rgb(44.309998%, 76.951599%, 49.414062%)" fill-opacity="1" d="M 2460.730469 1732.644531 C 2472.140625 1713.226562 2482 1687.441406 2477.519531 1667.207031 C 2471.390625 1639.511719 2426.320312 1610.421875 2394.261719 1616.109375 C 2339.921875 1625.746094 2325.871094 1671.53125 2291.550781 1745.960938 C 2272.160156 1788.003906 2258.089844 1806.371094 2251.609375 1813.308594 C 2237.800781 1828.097656 2202.738281 1853.355469 2192.769531 1869.546875 C 2182.800781 1885.738281 2186.660156 1914.480469 2197.941406 1927.167969 C 2209.21875 1939.855469 2247.21875 1939.070312 2264.820312 1931.488281 C 2282.421875 1923.902344 2335.75 1848.917969 2353.890625 1834.160156 C 2424.839844 1776.414062 2435.851562 1775.003906 2460.730469 1732.644531 "/>
<path fill-rule="nonzero" fill="rgb(100%, 100%, 100%)" fill-opacity="1" d="M 2426.050781 1687.976562 C 2425.378906 1687.945312 2424.71875 1688.140625 2424.171875 1688.535156 C 2395.5 1708.585938 2366.441406 1728.882812 2341.359375 1763.117188 C 2316.269531 1797.351562 2295.351562 1845.011719 2275.929688 1872.679688 C 2256.511719 1900.34375 2238.671875 1908.597656 2222.289062 1917.152344 C 2205.921875 1925.710938 2191.929688 1934.027344 2178.011719 1942.3125 C 2177.070312 1942.84375 2176.488281 1943.84375 2176.5 1944.921875 C 2176.5 1946 2177.089844 1946.992188 2178.039062 1947.515625 C 2178.980469 1948.035156 2180.140625 1948.003906 2181.050781 1947.433594 C 2194.980469 1939.152344 2208.851562 1930.90625 2225.050781 1922.4375 C 2241.261719 1913.96875 2260.710938 1904.738281 2280.808594 1876.101562 C 2300.910156 1847.46875 2321.710938 1800.011719 2346.171875 1766.640625 C 2370.621094 1733.269531 2398.921875 1713.46875 2427.589844 1693.421875 C 2428.648438 1692.699219 2429.128906 1691.378906 2428.78125 1690.144531 C 2428.441406 1688.90625 2427.328125 1688.035156 2426.050781 1687.976562 "/>
<path fill-rule="nonzero" fill="rgb(100%, 50.193787%, 50.193787%)" fill-opacity="1" d="M 1735.5 1178.71875 C 1735.710938 1186.78125 1732.058594 1194.640625 1724.910156 1200.378906 C 1715.371094 1208.039062 1697.671875 1210.011719 1685.238281 1204.128906 C 1672.808594 1198.261719 1666.871094 1190.25 1660.949219 1182.179688 C 1655.039062 1174.101562 1650.621094 1166.46875 1648.179688 1158.808594 C 1647.480469 1156.601562 1646.660156 1154.308594 1646.601562 1151.429688 C 1645.78125 1147.148438 1646.820312 1144.078125 1647.640625 1141.148438 C 1649.828125 1133.421875 1654 1125.648438 1659.648438 1117.378906 C 1665.289062 1109.109375 1670.96875 1100.921875 1683.199219 1094.640625 C 1695.441406 1088.359375 1713.191406 1089.75 1722.96875 1097.101562 C 1730.300781 1102.609375 1737.191406 1110.878906 1734.261719 1118.398438 C 1724.140625 1144.390625 1734.851562 1159.078125 1735.5 1178.71875 "/>
<path fill-rule="nonzero" fill="rgb(100%, 50.193787%, 50.193787%)" fill-opacity="1" d="M 1566.460938 1181.480469 C 1566.511719 1189.539062 1570.421875 1197.269531 1577.75 1202.78125 C 1587.53125 1210.128906 1605.289062 1211.519531 1617.519531 1205.238281 C 1629.761719 1198.960938 1635.429688 1190.769531 1641.078125 1182.5 C 1646.730469 1174.230469 1650.898438 1166.460938 1653.078125 1158.730469 C 1653.710938 1156.5 1654.460938 1154.179688 1654.421875 1151.308594 C 1655.101562 1146.988281 1653.960938 1143.96875 1653.039062 1141.070312 C 1650.609375 1133.410156 1646.179688 1125.78125 1640.269531 1117.699219 C 1634.359375 1109.621094 1628.421875 1101.621094 1615.980469 1095.738281 C 1603.550781 1089.859375 1585.851562 1091.828125 1576.320312 1099.488281 C 1569.171875 1105.238281 1561.949219 1114.019531 1565.730469 1121.148438 C 1581.441406 1150.808594 1566.46875 1160.449219 1566.460938 1181.480469 "/>
<path fill-rule="nonzero" fill="rgb(100%, 100%, 100%)" fill-opacity="1" d="M 1030.039062 1890.300781 L 1494.660156 1711.167969 C 1519.828125 1730.171875 1525.75 1713.945312 1531.308594 1697.039062 L 1640.289062 1655.023438 C 1652.949219 1650.136719 1667.171875 1656.191406 1672.179688 1668.589844 L 1809.820312 2009.523438 C 1814.828125 2021.921875 1808.671875 2035.832031 1796.011719 2040.714844 L 1680.289062 2085.328125 C 1661.53125 2072.679688 1647.980469 2073.273438 1644.398438 2099.164062 L 1185.761719 2275.992188 C 1173.101562 2280.878906 1158.878906 2274.820312 1153.871094 2262.425781 L 1016.21875 1921.488281 C 1011.210938 1909.09375 1017.378906 1895.179688 1030.039062 1890.300781 "/>
<path fill-rule="nonzero" fill="rgb(100%, 50.193787%, 50.193787%)" fill-opacity="1" d="M 1148.988281 1997.25 C 1138.050781 1967.945312 1138.050781 1967.945312 1145.570312 1949.039062 C 1153.230469 1930.074219 1153.230469 1930.074219 1175.25 1921.855469 C 1198.011719 1913.359375 1198.011719 1913.359375 1216.078125 1922.714844 C 1234.238281 1931.863281 1234.238281 1931.863281 1245.230469 1961.316406 C 1256.179688 1990.621094 1256.179688 1990.621094 1248.511719 2009.582031 C 1240.988281 2028.488281 1240.988281 2028.488281 1218.980469 2036.710938 C 1196.21875 2045.207031 1196.21875 2045.207031 1178.058594 2036.058594 C 1159.988281 2026.703125 1159.988281 2026.703125 1148.988281 1997.25 Z M 1181.460938 1984.789062 C 1189.398438 2006.0625 1189.398438 2006.0625 1197.03125 2011.515625 C 1202.75 2015.484375 1202.75 2015.484375 1209.289062 2013.039062 C 1215.988281 2010.539062 1215.988281 2010.539062 1217.710938 2003.796875 C 1219.75 1994.730469 1219.75 1994.730469 1211.800781 1973.460938 C 1203.859375 1952.1875 1203.859375 1952.1875 1196.441406 1946.824219 C 1190.660156 1942.710938 1190.660156 1942.710938 1183.96875 1945.210938 C 1177.421875 1947.652344 1177.421875 1947.652344 1175.699219 1954.398438 C 1173.519531 1963.519531 1173.519531 1963.519531 1181.460938 1984.789062 Z M 1293 2140.085938 L 1262.058594 2151.636719 L 1292.308594 1878.148438 L 1322.359375 1866.929688 Z M 1339.148438 2057.601562 C 1328.210938 2028.296875 1328.210938 2028.296875 1335.71875 2009.390625 C 1343.390625 1990.429688 1343.390625 1990.429688 1365.699219 1982.097656 C 1388.160156 1973.710938 1388.160156 1973.710938 1406.230469 1983.066406 C 1424.449219 1992.363281 1424.449219 1992.363281 1435.390625 2021.667969 C 1446.390625 2051.121094 1446.390625 2051.121094 1438.71875 2070.082031 C 1431.210938 2088.992188 1431.210938 2088.992188 1409.191406 2097.210938 C 1386.429688 2105.707031 1386.429688 2105.707031 1368.210938 2096.410156 C 1350.148438 2087.054688 1350.148438 2087.054688 1339.148438 2057.601562 Z M 1371.671875 2045.289062 C 1379.609375 2066.5625 1379.609375 2066.5625 1387.191406 2071.867188 C 1392.960938 2075.984375 1392.960938 2075.984375 1399.511719 2073.539062 C 1406.199219 2071.039062 1406.199219 2071.039062 1407.769531 2064.351562 C 1409.960938 2055.230469 1409.960938 2055.230469 1402.011719 2033.960938 C 1394.070312 2012.6875 1394.070312 2012.6875 1386.589844 2007.179688 C 1380.871094 2003.210938 1380.871094 2003.210938 1374.179688 2005.710938 C 1367.488281 2008.210938 1367.488281 2008.210938 1365.921875 2014.898438 C 1363.730469 2024.019531 1363.730469 2024.019531 1371.671875 2045.289062 "/>
<path fill-rule="nonzero" fill="rgb(100%, 83.59375%, 83.59375%)" fill-opacity="1" d="M 1518.171875 1756.71875 L 1533.019531 1795.496094 C 1534.261719 1798.726562 1538.449219 1800.101562 1542.421875 1798.578125 L 1543.269531 1798.257812 C 1547.238281 1796.734375 1549.441406 1792.910156 1548.199219 1789.679688 L 1533.359375 1750.902344 C 1532.121094 1747.671875 1527.921875 1746.296875 1523.949219 1747.820312 L 1523.109375 1748.140625 C 1519.140625 1749.664062 1516.929688 1753.488281 1518.171875 1756.71875 "/>
<path fill-rule="nonzero" fill="rgb(100%, 83.59375%, 83.59375%)" fill-opacity="1" d="M 1550.578125 1835.699219 L 1565.429688 1874.476562 C 1566.660156 1877.703125 1570.859375 1879.082031 1574.828125 1877.558594 L 1575.671875 1877.238281 C 1579.648438 1875.714844 1581.851562 1871.890625 1580.609375 1868.660156 L 1565.761719 1829.882812 C 1564.53125 1826.652344 1560.328125 1825.277344 1556.359375 1826.800781 L 1555.519531 1827.121094 C 1551.539062 1828.644531 1549.339844 1832.46875 1550.578125 1835.699219 "/>
<path fill-rule="nonzero" fill="rgb(100%, 83.59375%, 83.59375%)" fill-opacity="1" d="M 1582.988281 1914.679688 L 1597.839844 1953.457031 C 1599.070312 1956.6875 1603.269531 1958.0625 1607.238281 1956.539062 L 1608.078125 1956.21875 C 1612.058594 1954.695312 1614.261719 1950.871094 1613.019531 1947.640625 L 1598.171875 1908.863281 C 1596.941406 1905.636719 1592.738281 1904.257812 1588.769531 1905.78125 L 1587.921875 1906.105469 C 1583.949219 1907.625 1581.75 1911.449219 1582.988281 1914.679688 "/>
<path fill-rule="nonzero" fill="rgb(100%, 83.59375%, 83.59375%)" fill-opacity="1" d="M 1615.390625 1993.660156 L 1630.238281 2032.4375 C 1631.480469 2035.667969 1635.671875 2037.042969 1639.648438 2035.519531 L 1640.488281 2035.199219 C 1644.460938 2033.675781 1646.671875 2029.851562 1645.429688 2026.621094 L 1630.578125 1987.847656 C 1629.339844 1984.617188 1625.148438 1983.238281 1621.179688 1984.761719 L 1620.328125 1985.085938 C 1616.359375 1986.605469 1614.160156 1990.429688 1615.390625 1993.660156 "/>
<path fill-rule="nonzero" fill="rgb(100%, 44.309998%, 50.193787%)" fill-opacity="1" d="M 2757.730469 1626.753906 C 2748.191406 1629.199219 2740.269531 1636.402344 2736.058594 1647.257812 C 2730.449219 1661.734375 2734.421875 1684.480469 2745.738281 1698.019531 C 2757.050781 1711.558594 2768.550781 1716.285156 2780.140625 1720.945312 C 2791.71875 1725.605469 2802.238281 1728.558594 2812.101562 1729.019531 C 2814.941406 1729.152344 2817.921875 1729.410156 2821.320312 1728.507812 C 2826.640625 1728.089844 2829.871094 1725.769531 2833.011719 1723.753906 C 2841.308594 1718.425781 2848.960938 1710.601562 2856.660156 1700.777344 C 2864.359375 1690.949219 2871.960938 1681.105469 2874.988281 1663.722656 C 2878.019531 1646.34375 2870.078125 1624.65625 2857.988281 1614.925781 C 2848.910156 1607.628906 2838.449219 1605.347656 2828.96875 1608 C 2825.800781 1608.875 2822.75 1610.320312 2819.890625 1612.296875 C 2809.390625 1619.550781 2803.351562 1629.5625 2799.539062 1640.027344 C 2790.941406 1632.753906 2780.609375 1626.980469 2767.738281 1625.933594 C 2764.28125 1625.648438 2760.910156 1625.9375 2757.730469 1626.753906 "/>
<path fill-rule="nonzero" fill="rgb(97.65625%, 97.65625%, 97.65625%)" fill-opacity="1" d="M 626.460938 697.789062 C 626.460938 719.390625 635.304688 740.101562 651.046875 755.378906 C 666.789062 770.648438 688.140625 779.230469 710.402344 779.230469 C 756.761719 779.230469 794.34375 742.769531 794.34375 697.789062 C 794.34375 652.808594 756.761719 616.351562 710.402344 616.351562 C 688.140625 616.351562 666.789062 624.929688 651.046875 640.199219 C 635.304688 655.480469 626.460938 676.191406 626.460938 697.789062 "/>
<path fill-rule="nonzero" fill="rgb(50.193787%, 70.117188%, 100%)" fill-opacity="1" d="M 2990.460938 794.039062 C 3001.410156 770.039062 3001.410156 770.039062 3017.160156 763.25 C 3033.039062 756.511719 3033.039062 756.511719 3051.070312 764.738281 C 3069.710938 773.238281 3069.710938 773.238281 3074.910156 789.601562 C 3080.28125 805.890625 3080.28125 805.890625 3069.28125 830.011719 C 3058.328125 854.011719 3058.328125 854.011719 3042.449219 860.75 C 3026.691406 867.539062 3026.691406 867.539062 3008.660156 859.308594 C 2990.019531 850.808594 2990.019531 850.808594 2984.648438 834.519531 C 2979.449219 818.171875 2979.449219 818.171875 2990.460938 794.039062 Z M 3017.25 805.96875 C 3009.300781 823.390625 3009.300781 823.390625 3010.589844 831.199219 C 3011.640625 836.96875 3011.640625 836.96875 3017 839.421875 C 3022.480469 841.921875 3022.480469 841.921875 3027.53125 838.921875 C 3034.148438 834.730469 3034.148438 834.730469 3042.101562 817.308594 C 3050.050781 799.890625 3050.050781 799.890625 3048.820312 792.261719 C 3047.828125 786.371094 3047.828125 786.371094 3042.351562 783.871094 C 3036.988281 781.421875 3036.988281 781.421875 3031.941406 784.421875 C 3025.199219 788.550781 3025.199219 788.550781 3017.25 805.96875 Z M 2991.148438 965.101562 L 2965.808594 953.539062 L 3146.949219 808.488281 L 3171.558594 819.710938 Z M 3067.859375 943.429688 C 3078.808594 919.429688 3078.808594 919.429688 3094.570312 912.640625 C 3110.449219 905.898438 3110.449219 905.898438 3128.730469 914.238281 C 3147.121094 922.628906 3147.121094 922.628906 3152.320312 938.988281 C 3157.640625 955.398438 3157.640625 955.398438 3146.691406 979.398438 C 3135.679688 1003.519531 3135.679688 1003.519531 3119.800781 1010.261719 C 3104.039062 1017.050781 3104.039062 1017.050781 3086.011719 1008.820312 C 3067.371094 1000.320312 3067.371094 1000.320312 3062.050781 983.910156 C 3056.859375 967.558594 3056.859375 967.558594 3067.859375 943.429688 Z M 3094.601562 955.488281 C 3086.648438 972.910156 3086.648438 972.910156 3088 980.589844 C 3088.988281 986.488281 3088.988281 986.488281 3094.351562 988.929688 C 3099.839844 991.429688 3099.839844 991.429688 3104.761719 988.378906 C 3111.5 984.25 3111.5 984.25 3119.449219 966.828125 C 3127.398438 949.398438 3127.398438 949.398438 3126.230469 941.660156 C 3125.179688 935.878906 3125.179688 935.878906 3119.699219 933.378906 C 3114.21875 930.878906 3114.21875 930.878906 3109.289062 933.929688 C 3102.550781 938.058594 3102.550781 938.058594 3094.601562 955.488281 "/>
<path fill-rule="nonzero" fill="rgb(50.193787%, 70.117188%, 100%)" fill-opacity="1" d="M 963.8125 1312.96875 C 963.8125 1329.179688 970.449219 1344.730469 982.265625 1356.199219 C 994.085938 1367.660156 1010.109375 1374.101562 1026.820312 1374.101562 C 1061.628906 1374.101562 1089.839844 1346.730469 1089.839844 1312.96875 C 1089.839844 1279.199219 1061.628906 1251.828125 1026.820312 1251.828125 C 1010.109375 1251.828125 994.085938 1258.269531 982.265625 1269.738281 C 970.449219 1281.199219 963.8125 1296.75 963.8125 1312.96875 "/>
</svg>
